<svg width="55" height="55" viewBox="0 0 55 35" fill="none" xmlns="http://www.w3.org/2000/svg">
<path d="M32.3192 12.2882H26.8369C24.2448 12.2882 21.8047 13.5029 20.2361 15.5677L15.2817 22.0906C14.6019 21.6089 13.9892 21.0208 13.472 20.341L0.252116 2.92501C-0.360615 2.11732 0.212871 0.959589 1.22628 0.959589H19.6057C22.1978 0.959589 24.6417 2.17429 26.2103 4.23909L32.3192 12.2882Z" fill="#A230ED"/>
<path d="M46.1908 14.2536L32.9709 31.6702C31.4055 33.735 28.9622 34.9459 26.3663 34.9459H7.99073C6.97796 34.9459 6.40447 33.7913 7.0134 32.9843L15.2827 22.0912C16.6677 23.0755 18.3388 23.6173 20.0776 23.6173H38.4538C39.4666 23.6173 40.0439 22.4628 39.4312 21.6557L32.3196 12.2882H45.2173C46.2301 12.2882 46.8036 13.4465 46.1908 14.2536Z" fill="#6E47FF"/>
<path d="M38.4524 23.6173H20.0761C18.3373 23.6173 16.6656 23.0755 15.2812 22.0912L20.2356 15.5683C21.8042 13.5035 24.2443 12.2888 26.8364 12.2888H32.3187L39.4297 21.6557C40.0424 22.4628 39.4651 23.6173 38.4524 23.6173Z" fill="#6B00D7"/>
</svg>
